<svg width="13" height="14" viewBox="0 0 13 14" fill="none" xmlns="http://www.w3.org/2000/svg">
<path d="M11.7 9.75H13V11.05H0V9.75H1.3V5.2C1.3 3.82087 1.84786 2.49823 2.82304 1.52304C3.79823 0.547856 5.12087 0 6.5 0C7.87913 0 9.20177 0.547856 10.177 1.52304C11.1521 2.49823 11.7 3.82087 11.7 5.2V9.75ZM10.4 9.75V5.2C10.4 4.16566 9.98911 3.17368 9.25772 2.44228C8.52633 1.71089 7.53434 1.3 6.5 1.3C5.46566 1.3 4.47368 1.71089 3.74228 2.44228C3.01089 3.17368 2.6 4.16566 2.6 5.2V9.75H10.4ZM4.55 12.35H8.45V13.65H4.55V12.35Z" fill="#2D2D2D"/>
</svg>
