<svg width="39" height="48" viewBox="0 0 39 48" fill="none" xmlns="http://www.w3.org/2000/svg">
<path d="M6.5 12C6.5 9.62663 7.26244 7.30655 8.6909 5.33316C10.1194 3.35977 12.1497 1.8217 14.5251 0.913451C16.9006 0.00519947 19.5144 -0.232441 22.0362 0.230582C24.5579 0.693605 26.8743 1.83649 28.6924 3.51472C30.5105 5.19295 31.7486 7.33115 32.2502 9.65892C32.7518 11.9867 32.4944 14.3995 31.5104 16.5922C30.5265 18.7849 28.8603 20.6591 26.7224 21.9776C24.5846 23.2962 22.0712 24 19.5 24C16.0532 23.9968 12.7486 22.7315 10.3114 20.4818C7.87419 18.232 6.50344 15.1816 6.5 12ZM19.5 28C14.33 28.0053 9.37347 29.9034 5.71775 33.2779C2.06204 36.6524 0.00573485 41.2277 0 46C0 46.5304 0.228273 47.0391 0.634602 47.4142C1.04093 47.7893 1.59203 48 2.16667 48H36.8333C37.408 48 37.9591 47.7893 38.3654 47.4142C38.7717 47.0391 39 46.5304 39 46C38.9943 41.2277 36.938 36.6524 33.2823 33.2779C29.6265 29.9034 24.67 28.0053 19.5 28Z" fill="#9E9E9E"/>
</svg>
