<svg width="99" height="114" viewBox="0 0 99 114" fill="none" xmlns="http://www.w3.org/2000/svg">
<path d="M1.372 110.001V100.201H2.688L7.49 106.781C7.87267 107.304 8.11067 107.64 8.204 107.789L8.232 107.775C8.21333 107.476 8.204 107.206 8.204 106.963V100.201H9.562V110.001H8.246L3.43 103.421C3.04733 102.898 2.80933 102.562 2.716 102.413L2.688 102.427C2.70667 102.726 2.716 102.996 2.716 103.239V110.001H1.372ZM15.1538 110.155C14.4538 110.155 13.8284 110.001 13.2778 109.693C12.7364 109.385 12.3164 108.96 12.0178 108.419C11.7191 107.868 11.5698 107.252 11.5698 106.571C11.5698 105.88 11.7238 105.26 12.0318 104.709C12.3398 104.149 12.7738 103.715 13.3338 103.407C13.8938 103.09 14.5331 102.931 15.2518 102.931C15.9518 102.931 16.5724 103.085 17.1138 103.393C17.6644 103.701 18.0891 104.13 18.3878 104.681C18.6864 105.222 18.8358 105.834 18.8358 106.515C18.8358 107.206 18.6818 107.831 18.3738 108.391C18.0658 108.942 17.6318 109.376 17.0718 109.693C16.5118 110.001 15.8724 110.155 15.1538 110.155ZM15.1818 108.965C15.6391 108.965 16.0451 108.862 16.3998 108.657C16.7638 108.442 17.0438 108.153 17.2398 107.789C17.4358 107.425 17.5338 107.019 17.5338 106.571C17.5338 106.114 17.4358 105.698 17.2398 105.325C17.0438 104.952 16.7684 104.658 16.4138 104.443C16.0591 104.228 15.6578 104.121 15.2098 104.121C14.7524 104.121 14.3464 104.228 13.9918 104.443C13.6371 104.648 13.3618 104.938 13.1658 105.311C12.9698 105.675 12.8718 106.076 12.8718 106.515C12.8718 106.972 12.9698 107.388 13.1658 107.761C13.3618 108.134 13.6324 108.428 13.9778 108.643C14.3324 108.858 14.7338 108.965 15.1818 108.965ZM27.422 110.155C26.7593 110.155 26.1666 110.006 25.644 109.707C25.1213 109.408 24.7106 108.988 24.412 108.447C24.1226 107.906 23.978 107.276 23.978 106.557C23.978 105.838 24.1226 105.208 24.412 104.667C24.7106 104.116 25.1166 103.692 25.63 103.393C26.1526 103.085 26.7406 102.931 27.394 102.931C27.9913 102.931 28.514 103.066 28.962 103.337C29.4193 103.598 29.7553 103.934 29.97 104.345H29.998C29.9326 103.738 29.9 103.155 29.9 102.595V100.201H31.202V110.001H29.984V108.755H29.956C29.788 109.138 29.4706 109.469 29.004 109.749C28.5466 110.02 28.0193 110.155 27.422 110.155ZM27.548 108.965C28.2386 108.965 28.8033 108.746 29.242 108.307C29.6806 107.859 29.9 107.28 29.9 106.571C29.9 105.843 29.6806 105.255 29.242 104.807C28.8126 104.35 28.2573 104.121 27.576 104.121C27.1373 104.121 26.7406 104.224 26.386 104.429C26.0406 104.634 25.77 104.919 25.574 105.283C25.378 105.647 25.28 106.058 25.28 106.515C25.28 106.991 25.378 107.416 25.574 107.789C25.77 108.162 26.036 108.452 26.372 108.657C26.7173 108.862 27.1093 108.965 27.548 108.965ZM36.0547 102.959C37.0814 102.959 37.8934 103.169 38.4907 103.589C39.0974 104.009 39.4007 104.695 39.4007 105.647V110.001H38.2667C38.2667 109.46 38.276 109.054 38.2947 108.783H38.2667C38.0334 109.212 37.6787 109.544 37.2027 109.777C36.736 110.001 36.2367 110.113 35.7047 110.113C34.958 110.113 34.328 109.926 33.8147 109.553C33.3014 109.17 33.0447 108.615 33.0447 107.887C33.0447 107.392 33.1707 106.972 33.4227 106.627C33.6747 106.282 34.0107 106.025 34.4307 105.857C34.86 105.68 35.322 105.591 35.8167 105.591C36.7314 105.591 37.492 105.768 38.0987 106.123V105.647C38.0987 105.106 37.9027 104.714 37.5107 104.471C37.1187 104.219 36.61 104.093 35.9847 104.093C35.658 104.093 35.308 104.135 34.9347 104.219C34.5614 104.303 34.216 104.41 33.8987 104.541L33.5627 103.491C34.384 103.136 35.2147 102.959 36.0547 102.959ZM35.9427 109.021C36.512 109.021 37.0067 108.862 37.4267 108.545C37.8467 108.228 38.0847 107.789 38.1407 107.229C37.87 107.061 37.5387 106.926 37.1467 106.823C36.7547 106.711 36.3907 106.655 36.0547 106.655C35.56 106.655 35.1494 106.758 34.8227 106.963C34.5054 107.159 34.3467 107.448 34.3467 107.831C34.3467 108.214 34.5054 108.508 34.8227 108.713C35.14 108.918 35.5134 109.021 35.9427 109.021ZM46.0036 109.777C45.509 109.992 45.0143 110.099 44.5196 110.099C43.801 110.099 43.255 109.898 42.8816 109.497C42.5176 109.086 42.3356 108.489 42.3356 107.705V104.191H40.9776V103.085H42.3356V101.223L43.6236 101.083V103.085H45.7236V104.191H43.6236V107.677C43.6236 108.097 43.7076 108.414 43.8756 108.629C44.0436 108.844 44.3096 108.951 44.6736 108.951C44.963 108.951 45.2756 108.872 45.6116 108.713L46.0036 109.777ZM49.9531 102.959C50.9798 102.959 51.7918 103.169 52.3891 103.589C52.9958 104.009 53.2991 104.695 53.2991 105.647V110.001H52.1651C52.1651 109.46 52.1745 109.054 52.1931 108.783H52.1651C51.9318 109.212 51.5771 109.544 51.1011 109.777C50.6345 110.001 50.1351 110.113 49.6031 110.113C48.8565 110.113 48.2265 109.926 47.7131 109.553C47.1998 109.17 46.9431 108.615 46.9431 107.887C46.9431 107.392 47.0691 106.972 47.3211 106.627C47.5731 106.282 47.9091 106.025 48.3291 105.857C48.7585 105.68 49.2205 105.591 49.7151 105.591C50.6298 105.591 51.3905 105.768 51.9971 106.123V105.647C51.9971 105.106 51.8011 104.714 51.4091 104.471C51.0171 104.219 50.5085 104.093 49.8831 104.093C49.5565 104.093 49.2065 104.135 48.8331 104.219C48.4598 104.303 48.1145 104.41 47.7971 104.541L47.4611 103.491C48.2825 103.136 49.1131 102.959 49.9531 102.959ZM49.8411 109.021C50.4105 109.021 50.9051 108.862 51.3251 108.545C51.7451 108.228 51.9831 107.789 52.0391 107.229C51.7685 107.061 51.4371 106.926 51.0451 106.823C50.6531 106.711 50.2891 106.655 49.9531 106.655C49.4585 106.655 49.0478 106.758 48.7211 106.963C48.4038 107.159 48.2451 107.448 48.2451 107.831C48.2451 108.214 48.4038 108.508 48.7211 108.713C49.0385 108.918 49.4118 109.021 49.8411 109.021ZM62.4344 101.139C62.0517 101.139 61.7531 101.256 61.5384 101.489C61.3331 101.722 61.2304 102.082 61.2304 102.567V103.085H63.3444V104.219H61.2304V110.001H59.9284V104.219H58.5844V103.085H59.9284V102.595C59.9284 101.783 60.1431 101.153 60.5724 100.705C61.0111 100.257 61.5944 100.033 62.3224 100.033C62.9197 100.033 63.4471 100.168 63.9044 100.439L63.4564 101.377C63.1297 101.218 62.7891 101.139 62.4344 101.139ZM67.8081 110.155C67.1081 110.155 66.4827 110.001 65.9321 109.693C65.3907 109.385 64.9707 108.96 64.6721 108.419C64.3734 107.868 64.2241 107.252 64.2241 106.571C64.2241 105.88 64.3781 105.26 64.6861 104.709C64.9941 104.149 65.4281 103.715 65.9881 103.407C66.5481 103.09 67.1874 102.931 67.9061 102.931C68.6061 102.931 69.2267 103.085 69.7681 103.393C70.3187 103.701 70.7434 104.13 71.0421 104.681C71.3407 105.222 71.4901 105.834 71.4901 106.515C71.4901 107.206 71.3361 107.831 71.0281 108.391C70.7201 108.942 70.2861 109.376 69.7261 109.693C69.1661 110.001 68.5267 110.155 67.8081 110.155ZM67.8361 108.965C68.2934 108.965 68.6994 108.862 69.0541 108.657C69.4181 108.442 69.6981 108.153 69.8941 107.789C70.0901 107.425 70.1881 107.019 70.1881 106.571C70.1881 106.114 70.0901 105.698 69.8941 105.325C69.6981 104.952 69.4227 104.658 69.0681 104.443C68.7134 104.228 68.3121 104.121 67.8641 104.121C67.4067 104.121 67.0007 104.228 66.6461 104.443C66.2914 104.648 66.0161 104.938 65.8201 105.311C65.6241 105.675 65.5261 106.076 65.5261 106.515C65.5261 106.972 65.6241 107.388 65.8201 107.761C66.0161 108.134 66.2867 108.428 66.6321 108.643C66.9867 108.858 67.3881 108.965 67.8361 108.965ZM76.2289 110.127C75.3236 110.127 74.6049 109.833 74.0729 109.245C73.5409 108.657 73.2749 107.868 73.2749 106.879V103.085H74.5769V106.837C74.5769 107.5 74.7449 108.018 75.0809 108.391C75.4263 108.764 75.8976 108.951 76.4949 108.951C77.0829 108.951 77.5636 108.746 77.9369 108.335C78.3103 107.915 78.4969 107.392 78.4969 106.767V103.085H79.7989V110.001H78.5949C78.5949 109.478 78.6043 109.086 78.6229 108.825H78.5809C78.3569 109.254 78.0396 109.581 77.6289 109.805C77.2276 110.02 76.7609 110.127 76.2289 110.127ZM82.2502 110.001V103.085H83.4682C83.4682 103.44 83.4542 103.869 83.4262 104.373H83.4682C83.6735 103.916 83.9909 103.566 84.4202 103.323C84.8495 103.08 85.3582 102.959 85.9462 102.959C86.8889 102.959 87.6075 103.234 88.1022 103.785C88.6062 104.336 88.8582 105.11 88.8582 106.109V110.001H87.5562V106.221C87.5562 105.558 87.3975 105.045 87.0802 104.681C86.7722 104.317 86.3102 104.135 85.6942 104.135C85.2835 104.135 84.9149 104.233 84.5882 104.429C84.2615 104.616 84.0049 104.877 83.8182 105.213C83.6409 105.54 83.5522 105.908 83.5522 106.319V110.001H82.2502ZM94.0938 110.155C93.4312 110.155 92.8385 110.006 92.3158 109.707C91.7932 109.408 91.3825 108.988 91.0838 108.447C90.7945 107.906 90.6498 107.276 90.6498 106.557C90.6498 105.838 90.7945 105.208 91.0838 104.667C91.3825 104.116 91.7885 103.692 92.3018 103.393C92.8245 103.085 93.4125 102.931 94.0658 102.931C94.6632 102.931 95.1858 103.066 95.6338 103.337C96.0912 103.598 96.4272 103.934 96.6418 104.345H96.6698C96.6045 103.738 96.5718 103.155 96.5718 102.595V100.201H97.8738V110.001H96.6558V108.755H96.6278C96.4598 109.138 96.1425 109.469 95.6758 109.749C95.2185 110.02 94.6912 110.155 94.0938 110.155ZM94.2198 108.965C94.9105 108.965 95.4752 108.746 95.9138 108.307C96.3525 107.859 96.5718 107.28 96.5718 106.571C96.5718 105.843 96.3525 105.255 95.9138 104.807C95.4845 104.35 94.9292 104.121 94.2478 104.121C93.8092 104.121 93.4125 104.224 93.0578 104.429C92.7125 104.634 92.4418 104.919 92.2458 105.283C92.0498 105.647 91.9518 106.058 91.9518 106.515C91.9518 106.991 92.0498 107.416 92.2458 107.789C92.4418 108.162 92.7078 108.452 93.0438 108.657C93.3892 108.862 93.7812 108.965 94.2198 108.965Z" fill="black" fill-opacity="0.3"/>
<path d="M85.1461 0.855312C84.0057 -0.285104 82.1624 -0.285104 81.022 0.855312L71.5166 10.3607C65.9516 5.7174 58.7999 2.9174 51.0007 2.9174C33.3111 2.9174 18.9174 17.3111 18.9174 35.0007C18.9174 42.797 21.7203 49.9486 26.3607 55.5166L16.8553 65.022C15.7149 66.1624 15.7149 68.0057 16.8553 69.1461C17.4241 69.7149 18.1707 70.0007 18.9174 70.0007C19.6641 70.0007 20.4107 69.7149 20.9795 69.1461L30.4849 59.6407C36.0499 64.2841 43.2016 67.0841 51.0007 67.0841C68.6903 67.0841 83.0841 52.6903 83.0841 35.0007C83.0841 27.2045 80.2811 20.0528 75.6407 14.4849L85.1461 4.97948C86.2866 3.83906 86.2866 1.99573 85.1461 0.855312ZM24.7507 35.0007C24.7507 20.5282 36.5282 8.75073 51.0007 8.75073C57.1899 8.75073 62.8745 10.9149 67.3661 14.5111L30.5111 51.3661C26.9149 46.8745 24.7507 41.1899 24.7507 35.0007ZM77.2507 35.0007C77.2507 49.4761 65.4732 61.2507 51.0007 61.2507C44.8116 61.2507 39.127 59.0866 34.6353 55.4903L71.4903 18.6353C75.0866 23.127 77.2507 28.8116 77.2507 35.0007Z" fill="black" fill-opacity="0.3"/>
</svg>
