<svg width="12" height="12" viewBox="0 0 12 12" fill="none" xmlns="http://www.w3.org/2000/svg">
<path d="M11.4 0C11.7312 0 12 0.275692 12 0.615385V9.23077C12 9.57046 11.7312 9.84615 11.4 9.84615H2.673L0 12V0.615385C0 0.275692 0.2688 0 0.6 0H11.4ZM10.8 1.23077H1.2V9.46769L2.2578 8.61539H10.8V1.23077ZM5.109 2.71508L5.3772 3.13846C4.3764 3.69415 4.3938 4.58585 4.3938 4.77785C4.4868 4.76554 4.5846 4.76308 4.6818 4.77231C5.223 4.824 5.6496 5.28 5.6496 5.84615C5.6496 6.44062 5.1792 6.92308 4.5996 6.92308C4.2774 6.92308 3.9696 6.77231 3.7752 6.56C3.4662 6.224 3.3 5.84615 3.3 5.23385C3.3 4.15692 4.0368 3.192 5.109 2.71508ZM8.109 2.71508L8.3772 3.13846C7.3764 3.69415 7.3938 4.58585 7.3938 4.77785C7.4868 4.76554 7.5846 4.76308 7.6818 4.77231C8.223 4.824 8.6496 5.28 8.6496 5.84615C8.6496 6.44062 8.1792 6.92308 7.5996 6.92308C7.2774 6.92308 6.9696 6.77231 6.7752 6.56C6.4662 6.224 6.3 5.84615 6.3 5.23385C6.3 4.15692 7.0368 3.192 8.109 2.71508Z" fill="#2D2D2D"/>
</svg>
