<svg width="15" height="15" viewBox="0 0 15 15" fill="none" xmlns="http://www.w3.org/2000/svg">
<path d="M14.88 1.95079C14.88 5.61333 14.88 9.27587 14.88 12.938C14.8701 12.9744 14.8578 13.0108 14.8512 13.048C14.7176 13.7868 14.3191 14.3342 13.6447 14.6603C13.423 14.7677 13.1712 14.8121 12.9331 14.8856C11.6836 14.8856 10.4338 14.8856 9.18433 14.8856C9.18433 13.1342 9.18433 11.3832 9.18433 9.62309C9.93045 9.62309 10.6562 9.62309 11.3928 9.62309C11.5381 8.75104 11.6822 7.8859 11.8296 7.00257C10.9386 7.00257 10.0647 7.00257 9.1916 7.00257C9.1916 6.40749 9.1916 5.82807 9.1916 5.23262C10.072 5.23262 10.9455 5.23262 11.8179 5.23262C11.8179 4.35293 11.8179 3.48925 11.8179 2.61902C10.9503 2.61902 10.0931 2.6172 9.23637 2.61938C7.71865 2.62375 6.57399 3.76914 6.56926 5.28758C6.56744 5.80586 6.5689 6.32414 6.5689 6.84243C6.5689 6.89411 6.5689 6.94543 6.5689 7.01276C5.97892 7.01276 5.40568 7.01276 4.83244 7.01276C4.83244 7.88918 4.83244 8.74958 4.83244 9.62564C5.41223 9.62564 5.98547 9.62564 6.5689 9.62564C6.5689 11.3894 6.5689 13.1371 6.5689 14.8852C5.02861 14.8852 3.48833 14.8852 1.94805 14.8852C1.92548 14.8769 1.90364 14.8649 1.88035 14.8612C0.759713 14.6727 0.00303764 13.7999 0.00194575 12.676C-0.000965935 9.18852 -0.00133043 5.70104 0.0059488 2.21393C0.00631276 1.97117 0.0463493 1.71822 0.122781 1.48819C0.429964 0.567007 1.2456 0.00395831 2.24103 0.00359435C5.52906 0.00250246 8.81709 0.00323003 12.1055 0.00323003C12.3282 0.00323003 12.5517 -0.00623238 12.7737 0.00723418C13.6265 0.0581888 14.263 0.46073 14.6477 1.22432C14.7598 1.44852 14.8043 1.70766 14.88 1.95079Z" fill="#F24A00"/>
</svg>
