<svg width="22" height="22" viewBox="0 0 22 22" fill="none" xmlns="http://www.w3.org/2000/svg">
<path d="M7.82059 0C8.2073 0 8.59401 0 8.98072 0C9.03529 0.0124607 9.08986 0.0279292 9.14486 0.0369524C9.56079 0.105271 9.98359 0.143513 10.3918 0.243628C15.5699 1.51505 18.2618 7.18767 15.9832 12.0108C13.9207 16.3768 8.50464 18.1041 4.30968 15.7301C4.17863 15.6562 4.06519 15.6498 3.92727 15.6884C2.716 16.0275 1.50302 16.3622 0.290892 16.6978C0.21355 16.7192 0.134919 16.736 0.0326554 16.7605C0.398312 15.4414 0.751508 14.1601 1.11158 12.8805C1.15369 12.7314 1.13822 12.6145 1.06131 12.4792C0.663424 11.7784 0.371672 11.0337 0.210113 10.2435C0.124607 9.82547 0.0691783 9.40095 0 8.97943C0 8.59272 0 8.20601 0 7.8193C0.0425382 7.53056 0.0816389 7.24095 0.128044 6.95307C0.655261 3.69567 3.28404 0.919513 6.51479 0.218277C6.94576 0.125466 7.38532 0.0721861 7.82059 0ZM9.04474 10.3437C9.04474 10.0592 9.03314 9.79368 9.05076 9.53071C9.05721 9.42974 9.10576 9.30814 9.17666 9.23896C9.49935 8.92443 9.84266 8.63096 10.1688 8.31945C11.1489 7.38275 11.2494 5.88875 10.409 4.83389C9.57755 3.79106 8.09902 3.55345 6.97584 4.3041C6.22992 4.80252 5.85481 5.5188 5.8243 6.4323C6.25957 6.4323 6.67721 6.4323 7.10389 6.4323C7.11377 6.3657 7.12193 6.30984 7.12967 6.25398C7.21302 5.65715 7.72778 5.18666 8.32933 5.15787C8.86256 5.13252 9.3554 5.43114 9.57368 5.91195C9.79582 6.40179 9.70001 6.97627 9.30427 7.35653C8.84494 7.79782 8.36757 8.22019 7.9018 8.6546C7.84293 8.7096 7.76645 8.78737 7.76473 8.85655C7.75313 9.3481 7.75829 9.84051 7.75829 10.3437C8.1914 10.3437 8.60303 10.3437 9.04474 10.3437ZM7.77375 11.6568C7.77375 12.0856 7.77375 12.5019 7.77375 12.9209C8.20257 12.9209 8.61378 12.9209 9.02799 12.9209C9.02799 12.4921 9.02799 12.0757 9.02799 11.6568C8.59917 11.6568 8.18754 11.6568 7.77375 11.6568Z" fill="#F24A00"/>
<path d="M14.352 21.9996C13.897 21.9128 13.4321 21.8604 12.9887 21.7332C11.0671 21.1828 9.61998 20.0218 8.63902 18.2799C8.61453 18.2365 8.59305 18.1909 8.57285 18.1454C8.56769 18.1342 8.57199 18.1187 8.57199 18.105C13.604 18.0964 18.0735 13.742 18.1061 8.55106C18.6235 8.80414 19.0892 9.1178 19.5133 9.49076C20.9339 10.7394 21.7593 12.3009 21.9625 14.1859C21.9685 14.2417 21.9874 14.2959 22.0003 14.3513C22.0003 14.7092 22.0003 15.0676 22.0003 15.4255C21.9883 15.4736 21.9694 15.5209 21.9651 15.5694C21.8731 16.5732 21.5689 17.5094 21.0842 18.3911C21.0404 18.4711 21.0404 18.5965 21.0653 18.6889C21.3373 19.6948 21.6183 20.6985 21.8968 21.7027C21.9187 21.7809 21.9367 21.8604 21.9612 21.9579C21.9019 21.9459 21.8749 21.9416 21.8482 21.9343C20.823 21.6511 19.7965 21.3723 18.7739 21.0796C18.5882 21.0268 18.4482 21.0573 18.2733 21.1325C17.7177 21.3714 17.1557 21.6004 16.5799 21.783C16.21 21.9003 15.8121 21.93 15.4267 21.9987C15.0683 21.9996 14.71 21.9996 14.352 21.9996Z" fill="#F24A00"/>
</svg>
