<svg width="16" height="15" viewBox="0 0 16 15" fill="none" xmlns="http://www.w3.org/2000/svg">
<path d="M15.9693 3.09686L10.3573 8.83643C9.73158 9.47479 8.88383 9.83328 8 9.83328C7.11617 9.83328 6.26842 9.47479 5.64267 8.83643L0.0306667 3.09686C0.0213333 3.20459 0 3.30209 0 3.40914V11.591C0.00105857 12.4948 0.352588 13.3613 0.97748 14.0004C1.60237 14.6395 2.4496 14.999 3.33333 15.0001H12.6667C13.5504 14.999 14.3976 14.6395 15.0225 14.0004C15.6474 13.3613 15.9989 12.4948 16 11.591V3.40914C16 3.30209 15.9787 3.20459 15.9693 3.09686Z" fill="#FF9F0A"/>
<path d="M9.41476 7.8723L15.5041 1.64387C15.2091 1.14363 14.7931 0.729573 14.2961 0.441636C13.7991 0.153698 13.2379 0.00159591 12.6668 0H3.33343C2.76224 0.00159591 2.20109 0.153698 1.70411 0.441636C1.20713 0.729573 0.791079 1.14363 0.496094 1.64387L6.58543 7.8723C6.96114 8.25502 7.46982 8.46989 8.00009 8.46989C8.53037 8.46989 9.03905 8.25502 9.41476 7.8723Z" fill="#FF9F0A"/>
</svg>
