<svg width="14" height="14" viewBox="0 0 14 14" fill="none" xmlns="http://www.w3.org/2000/svg">
<path d="M14 2.59867C14 5.5333 14 8.46794 14 11.4026C13.9908 11.4375 13.9788 11.4717 13.9729 11.507C13.7832 12.6515 13.1466 13.4324 12.0608 13.8374C11.8505 13.9158 11.6225 13.9473 11.4026 14C8.46795 14 5.53294 14 2.59826 14C2.48731 13.9784 2.37534 13.9603 2.26542 13.9346C0.905947 13.6169 0.00260211 12.4813 0.00157481 11.0787C-0.000822241 8.35907 -0.000823036 5.63909 0.00397106 2.91945C0.0043135 2.69795 0.0221208 2.47063 0.0731437 2.25597C0.398458 0.88588 1.52336 0.00227135 2.93282 0.00124429C5.64799 -0.000125112 8.36351 -0.000810526 11.0787 0.00158594C12.4693 0.00261299 13.585 0.878006 13.9223 2.22619C13.9531 2.34943 13.9743 2.47473 14 2.59867ZM6.98247 7.1831C8.04367 6.12181 9.11516 5.05059 10.1647 4.00094C8.06628 4.00094 5.92742 4.00094 3.79987 4.00094C4.86861 5.06976 5.93907 6.14029 6.98247 7.1831ZM5.91441 7.34058C5.21105 8.04411 4.50495 8.75004 3.80638 9.44878C5.93085 9.44878 8.07244 9.44878 10.1777 9.44878C9.48259 8.75381 8.7758 8.04685 8.04265 7.31387C7.70021 7.66033 7.34339 8.02117 6.97014 8.39844C6.61572 8.04308 6.25958 7.68635 5.91441 7.34058ZM5.29049 6.70689C4.48371 5.88627 3.66153 5.05025 2.83044 4.20532C2.74037 4.38745 2.73935 9.06295 2.8027 9.19475C3.62694 8.37071 4.45598 7.54154 5.29049 6.70689ZM11.2081 9.20776C11.217 9.1523 11.2369 9.0876 11.2369 9.02289C11.2386 7.49361 11.2386 5.96398 11.2369 4.4347C11.2369 4.36691 11.2153 4.29947 11.2078 4.25428C10.3709 5.09098 9.53978 5.92221 8.733 6.72914C9.5456 7.54257 10.3736 8.37174 11.2081 9.20776Z" fill="#F24A00"/>
</svg>
