<svg width="13" height="13" viewBox="0 0 13 13" fill="none" xmlns="http://www.w3.org/2000/svg">
<path d="M10.0455 3.71429H13V4.95238H10.0455V3.71429ZM8.86364 6.80952H13V8.04762H8.86364V6.80952ZM10.6364 9.90476H13V11.1429H10.6364V9.90476ZM0 13C0 11.6865 0.498051 10.4269 1.38459 9.49814C2.27112 8.56939 3.47352 8.04762 4.72727 8.04762C5.98102 8.04762 7.18342 8.56939 8.06996 9.49814C8.95649 10.4269 9.45455 11.6865 9.45455 13H8.27273C8.27273 12.0149 7.89919 11.0702 7.23429 10.3736C6.56939 9.67704 5.66759 9.28572 4.72727 9.28572C3.78696 9.28572 2.88516 9.67704 2.22026 10.3736C1.55536 11.0702 1.18182 12.0149 1.18182 13H0ZM4.72727 7.42857C2.76841 7.42857 1.18182 5.76643 1.18182 3.71429C1.18182 1.66214 2.76841 0 4.72727 0C6.68614 0 8.27273 1.66214 8.27273 3.71429C8.27273 5.76643 6.68614 7.42857 4.72727 7.42857ZM4.72727 6.19048C6.03318 6.19048 7.09091 5.08238 7.09091 3.71429C7.09091 2.34619 6.03318 1.2381 4.72727 1.2381C3.42136 1.2381 2.36364 2.34619 2.36364 3.71429C2.36364 5.08238 3.42136 6.19048 4.72727 6.19048Z" fill="#2D2D2D"/>
</svg>
