<svg width="16" height="15" viewBox="0 0 16 15" fill="none" xmlns="http://www.w3.org/2000/svg">
<path d="M15.7977 3.60504C15.7977 6.16345 15.7977 8.72186 15.7977 11.2803C15.789 11.3175 15.7774 11.3544 15.7718 11.3922C15.534 13.0287 14.636 14.1315 13.0811 14.6873C12.7977 14.7888 12.4895 14.8211 12.1927 14.8856C9.63426 14.8856 7.07585 14.8856 4.51744 14.8856C4.48488 14.8775 4.4529 14.8658 4.42004 14.8612C2.77597 14.628 1.66888 13.7285 1.1098 12.1685C1.00834 11.8853 0.97636 11.5771 0.912109 11.2806C0.912109 8.72216 0.912109 6.16374 0.912109 3.60533C0.921413 3.5591 0.934786 3.51317 0.939729 3.46607C1.09498 1.96242 2.22475 0.600936 3.68188 0.177635C3.95459 0.0985571 4.23834 0.0581458 4.51686 0C7.07527 0 9.63368 0 12.1921 0C12.2293 0.00872186 12.2662 0.0200604 12.304 0.0255843C13.9246 0.257004 15.02 1.14547 15.5858 2.67529C15.6957 2.97096 15.7294 3.29454 15.7977 3.60504ZM13.1812 7.44556C13.1812 6.72369 13.182 6.00181 13.1809 5.27993C13.1785 3.77046 12.0305 2.61889 10.5236 2.61685C9.0749 2.61511 7.62649 2.61511 6.17779 2.6183C6.00917 2.61859 5.83764 2.62993 5.6725 2.6622C4.39446 2.91368 3.53041 3.96845 3.52896 5.27353C3.52751 6.71235 3.52809 8.15145 3.52867 9.59027C3.52954 11.1183 4.67501 12.267 6.20047 12.2682C7.63463 12.2693 9.06851 12.2693 10.5027 12.2682C12.0313 12.267 13.1788 11.1218 13.1806 9.59638C13.1817 8.87973 13.1812 8.1625 13.1812 7.44556Z" fill="#F24A00"/>
<path d="M12.3088 7.44136C12.3088 8.16295 12.3097 8.88483 12.3085 9.60642C12.3071 10.6327 11.5448 11.3947 10.5167 11.3956C9.07327 11.3967 7.6301 11.397 6.18663 11.3956C5.16821 11.3944 4.40213 10.6301 4.40126 9.61456C4.4001 8.16644 4.4001 6.71803 4.40126 5.26991C4.40213 4.25381 5.16791 3.48919 6.18576 3.48832C7.63388 3.48716 9.08229 3.48687 10.5304 3.48832C11.5398 3.48948 12.3059 4.2541 12.3085 5.26177C12.3102 5.9883 12.3088 6.71483 12.3088 7.44136ZM6.17442 7.43962C6.17355 8.64091 7.15272 9.62182 8.35256 9.62212C9.55414 9.6227 10.5342 8.64439 10.5351 7.44368C10.5359 6.2421 9.55763 5.26206 8.35663 5.26147C7.15505 5.26089 6.17529 6.2389 6.17442 7.43962ZM11.2907 4.9472C11.2939 4.71171 11.0999 4.5111 10.8645 4.50587C10.6295 4.50064 10.4266 4.69339 10.4196 4.92859C10.4124 5.1696 10.6118 5.37602 10.8531 5.37718C11.0883 5.37835 11.2875 5.18269 11.2907 4.9472Z" fill="#F24A00"/>
<path d="M8.3508 6.13468C9.075 6.13293 9.66402 6.72166 9.66256 7.44586C9.66111 8.16338 9.07587 8.74862 8.35865 8.75036C7.63531 8.75211 7.04542 8.16251 7.04688 7.43918C7.04804 6.72195 7.63357 6.13613 8.3508 6.13468Z" fill="#F24A00"/>
</svg>
