<svg width="15" height="15" viewBox="0 0 15 15" fill="none" xmlns="http://www.w3.org/2000/svg">
<path d="M14.8608 1.8025C14.8608 5.56246 14.8608 9.32242 14.8608 13.0824C14.8521 13.1146 14.8408 13.1461 14.8353 13.1787C14.6752 14.1722 13.9018 14.8825 12.9614 14.8833C9.57515 14.886 6.18932 14.8868 2.80311 14.8829C1.75784 14.8818 0.91457 13.9807 0.913479 12.8664C0.910203 9.24824 0.906927 5.63004 0.91639 2.01184C0.918573 1.20283 1.2858 0.596172 1.95984 0.224487C2.1571 0.115739 2.38639 0.0730165 2.60112 0C6.12453 0 9.64795 0 13.1714 0C13.1972 0.00854448 13.2223 0.0198074 13.2485 0.0252448C14.0405 0.182929 14.5526 0.675791 14.7917 1.49412C14.8211 1.59471 14.8379 1.69958 14.8608 1.8025ZM8.34172 6.57809C8.34172 6.44914 8.34427 6.3202 8.34099 6.19164C8.33554 5.96793 8.238 5.86501 8.02727 5.86385C7.62328 5.8619 7.2193 5.8619 6.81531 5.86385C6.59476 5.86501 6.49722 5.96716 6.49722 6.19902C6.49649 8.04929 6.49649 9.89917 6.49722 11.7494C6.49722 11.9879 6.59767 12.0932 6.82295 12.0939C7.19528 12.0951 7.56723 12.0943 7.93956 12.0943C8.25911 12.0943 8.33554 12.0143 8.33554 11.678C8.3359 10.7482 8.33408 9.818 8.33663 8.8882C8.33772 8.53322 8.40978 8.19571 8.59431 7.89471C8.81923 7.52846 9.14897 7.41545 9.53985 7.47215C9.89761 7.52381 10.1375 7.74946 10.2208 8.11182C10.2903 8.4136 10.322 8.73129 10.3263 9.04239C10.3391 9.93801 10.3293 10.8344 10.3296 11.7304C10.3296 11.993 10.4228 12.0912 10.6663 12.0916C11.0703 12.0924 11.4743 12.0924 11.8782 12.0916C12.1214 12.0912 12.2174 11.9891 12.2171 11.7304C12.2167 10.7132 12.2276 9.69604 12.208 8.67925C12.2 8.25591 12.1581 7.82675 12.0744 7.4135C11.9201 6.64916 11.527 6.07629 10.782 5.86618C10.5651 5.8052 10.3354 5.77413 10.1105 5.76986C9.41865 5.75704 8.79375 5.92948 8.34172 6.57809ZM3.82618 8.97831C3.82618 9.87897 3.82618 10.78 3.82618 11.6807C3.82618 11.9949 3.92081 12.0939 4.21961 12.0943C4.5781 12.0943 4.93659 12.0947 5.29509 12.0943C5.56223 12.0939 5.66741 11.9852 5.66777 11.7001C5.6685 9.88402 5.6685 8.06793 5.66777 6.25184C5.66777 5.96716 5.56514 5.86151 5.2929 5.86074C4.92968 5.85957 4.56682 5.85957 4.2036 5.86074C3.92336 5.86151 3.82618 5.9656 3.82618 6.26194C3.82618 7.16688 3.82618 8.07259 3.82618 8.97831ZM5.932 4.06251C5.93637 3.3708 5.41192 2.79909 4.7659 2.79133C4.10387 2.78317 3.56122 3.3475 3.55649 4.04892C3.55176 4.74762 4.08022 5.32088 4.73242 5.32515C5.39991 5.32904 5.92763 4.77365 5.932 4.06251Z" fill="#F24A00"/>
</svg>
