<svg width="8" height="10" viewBox="0 0 8 10" fill="none" xmlns="http://www.w3.org/2000/svg">
<path d="M3.92857 0C5.99107 0 7.85714 1.61 7.85714 4.1C7.85714 5.76 6.54598 7.725 3.92857 10C1.31116 7.725 0 5.76 0 4.1C0 1.61 1.86607 0 3.92857 0ZM6.875 4.1C6.875 2.285 5.57366 1 3.92857 1C2.28348 1 0.982143 2.285 0.982143 4.1C0.982143 5.27 1.93973 6.82 3.92857 8.67C5.91741 6.82 6.875 5.27 6.875 4.1ZM3.92857 5C3.38839 5 2.94643 4.55 2.94643 4C2.94643 3.45 3.38839 3 3.92857 3C4.46875 3 4.91071 3.45 4.91071 4C4.91071 4.55 4.46875 5 3.92857 5Z" fill="#004BFD"/>
</svg>
