<svg width="19" height="20" viewBox="0 0 19 20" fill="none" xmlns="http://www.w3.org/2000/svg">
<path d="M15.7042 6.66639C17.5218 6.66639 19 5.17145 19 3.33319C19 1.49494 17.5218 0 15.7042 0C13.8865 0 12.4083 1.49494 12.4083 3.33319C12.4083 5.17145 13.8865 6.66639 15.7042 6.66639ZM15.7042 1.6666C16.613 1.6666 17.3521 2.41407 17.3521 3.33319C17.3521 4.25232 16.613 4.99979 15.7042 4.99979C14.7953 4.99979 14.0562 4.25232 14.0562 3.33319C14.0562 2.41407 14.7953 1.6666 15.7042 1.6666ZM17.2433 8.58381C17.1387 8.13549 16.6871 7.85967 16.2529 7.963C15.8096 8.06883 15.5352 8.51715 15.6391 8.96463L16.51 12.7053C16.6616 13.2536 16.552 13.8286 16.2092 14.2827C15.864 14.7386 15.3391 14.9994 14.769 14.9994H3.45599C2.90394 14.9994 2.38979 14.7519 2.04537 14.3202C1.70178 13.8894 1.57324 13.3344 1.68365 12.832L3.40902 6.3514C4.01875 3.59318 6.40989 1.66743 9.22289 1.66743C9.57719 1.66743 9.93067 1.6991 10.2734 1.76243C10.7274 1.84409 11.1501 1.54244 11.2317 1.09079C11.3133 0.637473 11.015 0.204158 10.5676 0.121662C10.1276 0.0408316 9.67524 0 9.22206 0C5.63207 0 2.58012 2.4624 1.80889 5.95309L0.0835206 12.4328C-0.14554 13.4694 0.101648 14.5386 0.762464 15.3669C1.42081 16.1927 2.40297 16.6668 3.45599 16.6668H5.0759C5.45904 18.5659 7.12261 20 9.11248 20C11.1023 20 12.7659 18.5659 13.1491 16.6668H14.7681C15.8558 16.6668 16.8585 16.1668 17.5177 15.2952C18.1777 14.4219 18.3886 13.3144 18.1052 12.2912L17.2433 8.58464V8.58381ZM9.11248 18.3326C8.03968 18.3326 7.13332 17.6334 6.79221 16.666H11.4319C11.0908 17.6334 10.1844 18.3326 9.11165 18.3326H9.11248Z" fill="#2D2D2D" fill-opacity="0.5"/>
</svg>
