<svg width="14" height="14" viewBox="0 0 14 14" fill="none" xmlns="http://www.w3.org/2000/svg">
<path d="M7.001 13.9992C5.59629 13.9992 4.19118 14.0008 2.78647 13.9988C1.41875 13.9968 0.308724 13.0818 0.0477804 11.7393C0.0152641 11.5715 0.00266335 11.3971 0.00266335 11.2256C-0.000181836 8.41127 -0.000994696 5.59698 0.00144403 2.78269C0.00266339 1.21865 1.21593 0.00335325 2.77834 0.00213389C5.59304 -0.000711295 8.40774 -0.000711295 11.2224 0.00213389C12.7853 0.0037597 13.9985 1.21784 14.0001 2.78228C14.0026 5.59129 14.0026 8.4007 14.0001 11.2097C13.9989 12.7835 12.7869 13.996 11.2155 13.9988C9.81041 14.0012 8.4057 13.9992 7.001 13.9992ZM10.2628 6.02538C10.2506 5.34864 10.0974 4.77228 9.79415 4.23698C9.12188 3.05054 7.79521 2.38558 6.53723 2.60263C4.98376 2.87048 3.81399 4.21747 3.74245 5.80143C3.71522 6.39891 3.88634 6.94275 4.13793 7.46789C4.82972 8.91202 5.8113 10.1562 6.84776 11.3609C6.95263 11.4824 7.05668 11.4755 7.16846 11.3459C7.38063 11.1004 7.59198 10.8541 7.79521 10.6012C8.53618 9.67982 9.23568 8.72912 9.76855 7.66827C10.0372 7.13216 10.2644 6.58019 10.2628 6.02538Z" fill="#F24A00"/>
<path d="M7.00651 7.09883C6.24116 7.10168 5.62457 6.4924 5.61725 5.72623C5.60993 4.96129 6.23831 4.32884 7.00326 4.33088C7.76536 4.33291 8.38277 4.95194 8.38439 5.71567C8.38643 6.4798 7.77268 7.09599 7.00651 7.09883Z" fill="#F24A00"/>
</svg>
