<svg width="18" height="18" viewBox="0 0 18 18" fill="none" xmlns="http://www.w3.org/2000/svg">
<path d="M0 6V5.25C0 3.18225 1.68225 1.5 3.75 1.5H4.5V0.75C4.5 0.336 4.83525 0 5.25 0C5.66475 0 6 0.336 6 0.75V1.5H12V0.75C12 0.336 12.3352 0 12.75 0C13.1648 0 13.5 0.336 13.5 0.75V1.5H14.25C16.3177 1.5 18 3.18225 18 5.25V6H0ZM18 7.5V14.25C18 16.3177 16.3177 18 14.25 18H3.75C1.68225 18 0 16.3177 0 14.25V7.5H18ZM9 14.25C9 13.836 8.66475 13.5 8.25 13.5H4.5C4.08525 13.5 3.75 13.836 3.75 14.25C3.75 14.664 4.08525 15 4.5 15H8.25C8.66475 15 9 14.664 9 14.25ZM14.25 11.25C14.25 10.836 13.9148 10.5 13.5 10.5H4.5C4.08525 10.5 3.75 10.836 3.75 11.25C3.75 11.664 4.08525 12 4.5 12H13.5C13.9148 12 14.25 11.664 14.25 11.25Z" fill="#2D2D2D99"/>
</svg>
