<svg width="14" height="14" viewBox="0 0 14 14" fill="none" xmlns="http://www.w3.org/2000/svg">
<path d="M11.4026 14C8.46795 14 5.53294 14 2.59826 14C2.48731 13.9784 2.37534 13.9603 2.26542 13.9346C0.905947 13.6169 0.00260211 12.4813 0.00157481 11.0787C-0.000822241 8.35907 -0.000823036 5.63909 0.00397106 2.91945C0.0043135 2.69795 0.0221208 2.47063 0.0731437 2.25597C0.398458 0.88588 1.52336 0.00227135 2.93282 0.00124429C5.64799 -0.000125112 8.36351 -0.000810526 11.0787 0.00158594C12.4693 0.00261299 13.585 0.878006 13.9223 2.22619C13.9531 2.34909 13.9743 2.47439 14 2.59867C14 5.5333 14 8.46794 14 11.4026C13.9908 11.4375 13.9788 11.4717 13.9729 11.507C13.7832 12.6515 13.1466 13.4324 12.0608 13.8374C11.8505 13.9158 11.6225 13.9469 11.4026 14ZM9.46204 10.8048C10.0421 10.8069 10.4363 10.6446 10.6777 10.1626C10.8866 9.7456 10.8126 9.37175 10.4154 9.12799C10.1592 8.97086 9.90104 8.81714 9.64251 8.66411C9.31616 8.47102 9.03948 8.49328 8.74943 8.73292C8.3231 9.08486 7.90567 9.06466 7.51221 8.67198C6.78693 7.94723 6.062 7.22212 5.33706 6.49702C4.93231 6.09202 4.91347 5.6812 5.27851 5.23922C5.49767 4.9739 5.5278 4.6877 5.35658 4.39156C5.19495 4.11186 5.02716 3.83524 4.858 3.55999C4.70732 3.31486 4.48406 3.17621 4.19607 3.20839C3.85774 3.24605 3.36292 3.54116 3.25574 3.97629C3.13863 4.45147 3.2102 4.90817 3.35436 5.36007C3.61701 6.1824 4.06286 6.90545 4.59603 7.57543C5.52301 8.7408 6.61298 9.71513 7.96046 10.3752C8.45768 10.6193 8.9775 10.7959 9.46204 10.8048Z" fill="#F24A00"/>
</svg>
