<svg width="17" height="17" viewBox="0 0 17 17" fill="none" xmlns="http://www.w3.org/2000/svg">
<path d="M15.8224 6.75158L14.3506 5.27787V4.10246C14.3506 2.9729 13.4323 2.05337 12.304 2.05337H11.1298L9.65802 0.580349C8.88413 -0.19345 7.53616 -0.19345 6.76296 0.580349L5.29113 2.05337H4.11696C2.98795 2.05337 2.07037 2.97221 2.07037 4.10246V5.27787L0.597863 6.75158C-0.199288 7.55069 -0.199288 8.84993 0.597863 9.64904L2.06969 11.1227V12.2982C2.06969 13.4277 2.98795 14.3472 4.11628 14.3472H5.29045L6.76227 15.8203C7.14887 16.2068 7.66343 16.4203 8.21015 16.4203C8.75686 16.4203 9.27073 16.2068 9.65733 15.8203L11.1292 14.3472H12.3033C13.4323 14.3472 14.3499 13.4284 14.3499 12.2982V11.1227L15.8224 9.64904C16.6196 8.84993 16.6196 7.55069 15.8224 6.75158ZM12.4545 6.98625L8.99635 10.4037C8.57622 10.821 8.02266 11.0304 7.46979 11.0304C6.91691 11.0304 6.36609 10.8217 5.94459 10.4057L4.16623 8.69599C3.898 8.42985 3.89526 7.99745 4.16144 7.72857C4.4283 7.46106 4.86006 7.45764 5.12965 7.72378L6.90733 9.43285C7.2173 9.74004 7.72159 9.74072 8.03224 9.43285L11.4911 6.01472C11.7607 5.7479 12.1932 5.75063 12.4593 6.01951C12.7255 6.28839 12.7228 6.7201 12.4545 6.98625Z" fill="#F19A0D"/>
</svg>
