<svg width="14" height="18" viewBox="0 0 14 18" fill="none" xmlns="http://www.w3.org/2000/svg">
<path d="M6.78491 9C7.67952 9 8.55403 8.73608 9.29787 8.24161C10.0417 7.74715 10.6215 7.04434 10.9638 6.22207C11.3062 5.39981 11.3957 4.49501 11.2212 3.62209C11.0467 2.74918 10.6159 1.94736 9.98329 1.31802C9.35071 0.688685 8.54476 0.260102 7.66734 0.0864682C6.78993 -0.0871652 5.88047 0.00194979 5.05396 0.342544C4.22746 0.683138 3.52103 1.25991 3.02401 1.99993C2.527 2.73996 2.26172 3.60998 2.26172 4.5C2.26292 5.69311 2.73985 6.83701 3.58785 7.68066C4.43586 8.52432 5.58565 8.99881 6.78491 9ZM6.78491 1.5C7.38132 1.5 7.96432 1.67595 8.46021 2.00559C8.9561 2.33524 9.3426 2.80377 9.57084 3.35195C9.79907 3.90013 9.85879 4.50333 9.74243 5.08527C9.62608 5.66721 9.33889 6.20176 8.91717 6.62132C8.49545 7.04088 7.95814 7.3266 7.3732 7.44235C6.78826 7.55811 6.18195 7.4987 5.63095 7.27164C5.07994 7.04457 4.60899 6.66006 4.27765 6.16671C3.9463 5.67336 3.76945 5.09334 3.76945 4.5C3.76945 3.70435 4.08715 2.94129 4.65266 2.37868C5.21817 1.81607 5.98516 1.5 6.78491 1.5Z" fill="#2D2D2D" fill-opacity="0.6"/>
<path d="M6.78479 10.5C4.98596 10.502 3.26139 11.2138 1.98942 12.4792C0.71746 13.7447 0.00199537 15.4604 0 17.25C0 17.4489 0.0794249 17.6397 0.220802 17.7803C0.362179 17.921 0.553928 18 0.753866 18C0.953803 18 1.14555 17.921 1.28693 17.7803C1.42831 17.6397 1.50773 17.4489 1.50773 17.25C1.50773 15.8576 2.06371 14.5223 3.05335 13.5377C4.04299 12.5531 5.38523 12 6.78479 12C8.18435 12 9.52659 12.5531 10.5162 13.5377C11.5059 14.5223 12.0618 15.8576 12.0618 17.25C12.0618 17.4489 12.1413 17.6397 12.2827 17.7803C12.424 17.921 12.6158 18 12.8157 18C13.0157 18 13.2074 17.921 13.3488 17.7803C13.4902 17.6397 13.5696 17.4489 13.5696 17.25C13.5676 15.4604 12.8521 13.7447 11.5802 12.4792C10.3082 11.2138 8.58362 10.502 6.78479 10.5Z" fill="#2D2D2D" fill-opacity="0.6"/>
</svg>
