<svg width="12" height="12" viewBox="0 0 12 12" fill="none" xmlns="http://www.w3.org/2000/svg">
<path d="M7.017 4.8705C7.3125 3.769 8.3335 3 9.5 3C10.6665 3 11.6875 3.769 11.983 4.8705C12.055 5.137 11.896 5.4115 11.6295 5.483C11.586 5.4945 11.5425 5.5 11.4995 5.5C11.279 5.5 11.077 5.353 11.017 5.1295C10.839 4.4645 10.215 4 9.5 4C8.785 4 8.161 4.4645 7.983 5.1295C7.911 5.397 7.639 5.556 7.3705 5.483C7.104 5.4115 6.945 5.1375 7.017 4.8705ZM9.5 2.5C10.1895 2.5 10.75 1.9395 10.75 1.25C10.75 0.5605 10.1895 0 9.5 0C8.8105 0 8.25 0.5605 8.25 1.25C8.25 1.9395 8.8105 2.5 9.5 2.5ZM9.5 6.5C8.8105 6.5 8.25 7.0605 8.25 7.75C8.25 8.4395 8.8105 9 9.5 9C10.1895 9 10.75 8.4395 10.75 7.75C10.75 7.0605 10.1895 6.5 9.5 6.5ZM9.5 9.5C8.3335 9.5 7.3125 10.269 7.017 11.3705C6.945 11.637 7.104 11.9115 7.3705 11.983C7.6385 12.056 7.911 11.897 7.983 11.6295C8.161 10.9645 8.785 10.5 9.5 10.5C10.215 10.5 10.839 10.9645 11.017 11.6295C11.077 11.853 11.2785 12 11.4995 12C11.5425 12 11.586 11.9945 11.6295 11.983C11.896 11.9115 12.055 11.6375 11.983 11.3705C11.6875 10.269 10.6665 9.5 9.5 9.5ZM5.62 8.727L4.0795 7.1505C3.8875 6.953 3.5705 6.9495 3.3725 7.1425C3.175 7.3355 3.1715 7.652 3.3645 7.8495L4.4885 9H2.4995C1.6725 9 0.9995 8.327 0.9995 7.5V4.5C0.9995 3.673 1.6725 3 2.4995 3H4.9995C5.276 3 5.4995 2.7765 5.4995 2.5C5.4995 2.2235 5.276 2 4.9995 2H2.4995C1.1215 2 0 3.1215 0 4.5V7.5C0 8.8785 1.1215 10 2.5 10H4.4965L3.365 11.1505C3.1715 11.3485 3.1755 11.6645 3.373 11.8575C3.47 11.9525 3.5965 12 3.7225 12C3.8525 12 3.9825 11.9495 4.08 11.8495L5.6215 10.273C5.767 10.157 5.875 10.01 5.9285 9.861C6.024 9.628 6.024 9.372 5.9365 9.16C5.8755 8.9915 5.7665 8.843 5.6205 8.7275L5.62 8.727Z" fill="#2D2D2D"/>
</svg>
