<svg width="13" height="10" viewBox="0 0 13 10" fill="none" xmlns="http://www.w3.org/2000/svg">
<path d="M12.4091 8.88889V10H11.2273V8.88889H1.77273V10H0.590909V8.88889C0.43419 8.88889 0.28389 8.83036 0.173073 8.72617C0.0622563 8.62198 0 8.48068 0 8.33333V1.66667C0 1.51933 0.0622563 1.37802 0.173073 1.27383C0.28389 1.16964 0.43419 1.11111 0.590909 1.11111H6.812C7.14419 0.761145 7.55138 0.481218 8.00682 0.289719C8.46226 0.0982214 8.95564 -0.000513221 9.45455 2.00611e-06C10.5046 2.00611e-06 11.4483 0.429446 12.0971 1.11111H12.4091C12.5658 1.11111 12.7161 1.16964 12.8269 1.27383C12.9377 1.37802 13 1.51933 13 1.66667V8.33333C13 8.48068 12.9377 8.62198 12.8269 8.72617C12.7161 8.83036 12.5658 8.88889 12.4091 8.88889ZM6.11059 2.22222H1.18182V7.77778H11.8182V5.81778C11.2315 6.31182 10.4865 6.60813 9.70084 6.65995C8.91516 6.71177 8.13349 6.51615 7.47918 6.10396C6.82486 5.69177 6.33516 5.08647 6.08735 4.38359C5.83953 3.68071 5.84771 2.92025 6.11059 2.22222ZM9.45455 5.55556C10.0814 5.55556 10.6826 5.32143 11.1259 4.90468C11.5692 4.48794 11.8182 3.9227 11.8182 3.33333C11.8182 2.74396 11.5692 2.17873 11.1259 1.76199C10.6826 1.34524 10.0814 1.11111 9.45455 1.11111C8.82767 1.11111 8.22647 1.34524 7.7832 1.76199C7.33993 2.17873 7.09091 2.74396 7.09091 3.33333C7.09091 3.9227 7.33993 4.48794 7.7832 4.90468C8.22647 5.32143 8.82767 5.55556 9.45455 5.55556ZM2.36364 5.55556H3.54545V6.66667H2.36364V5.55556ZM4.13636 5.55556H5.31818V6.66667H4.13636V5.55556Z" fill="#2D2D2D"/>
</svg>
