<svg width="16" height="15" viewBox="0 0 16 15" fill="none" xmlns="http://www.w3.org/2000/svg">
<path d="M15.7994 1.8025C15.7994 5.56246 15.7994 9.32242 15.7994 13.0824C15.79 13.1146 15.778 13.1461 15.7722 13.1787C15.6013 14.1722 14.776 14.8825 13.7724 14.8833C10.1588 14.886 6.54569 14.8868 2.93215 14.8829C1.81671 14.8818 0.91682 13.9807 0.915655 12.8664C0.912159 9.24824 0.908663 5.63004 0.918761 2.01184C0.921092 1.20283 1.31297 0.596172 2.03226 0.224487C2.24277 0.115739 2.48745 0.0730165 2.7166 0C6.47656 0 10.2365 0 13.9965 0C14.0241 0.00854448 14.0509 0.0198074 14.0788 0.0252448C14.9239 0.182929 15.4704 0.675791 15.7256 1.49412C15.757 1.59471 15.7749 1.69958 15.7994 1.8025ZM8.63287 9.49486C8.68375 9.52865 8.72803 9.55778 8.77153 9.5873C9.44887 10.0468 10.1243 10.5082 10.8036 10.9645C11.1166 11.175 11.4739 11.043 11.5539 10.6903C12.0344 8.57206 12.5136 6.45341 12.9921 4.33477C13.0465 4.09358 12.9152 3.87648 12.6713 3.83919C12.5583 3.8221 12.429 3.8423 12.3198 3.88153C9.52966 4.88239 6.74105 5.88792 3.95205 6.89268C3.78077 6.95443 3.69883 7.05502 3.70698 7.19329C3.71514 7.33117 3.80369 7.41972 3.98235 7.46865C4.63095 7.64498 5.27878 7.82442 5.92893 7.99531C6.05128 8.02754 6.10953 8.08774 6.14915 8.20736C6.38606 8.92354 6.63191 9.63701 6.87582 10.3509C6.95466 10.5816 7.1306 10.6957 7.34149 10.6371C7.42499 10.6138 7.50578 10.5555 7.57142 10.495C7.9264 10.166 8.27634 9.83159 8.63287 9.49486Z" fill="#F24A00"/>
<path d="M7.11853 9.92367C7.0995 9.88483 7.07581 9.84793 7.06221 9.80754C6.86996 9.23506 6.67849 8.66219 6.48779 8.08932C6.43031 7.91649 6.45323 7.85629 6.6078 7.76735C8.12251 6.89931 9.63721 6.03166 11.1519 5.164C11.1686 5.15429 11.1857 5.13643 11.2024 5.13682C11.2548 5.13837 11.3069 5.14691 11.3589 5.15313C11.3438 5.20206 11.3438 5.26731 11.3108 5.29683C11.1671 5.42616 11.014 5.5454 10.8641 5.66774C9.72848 6.59559 8.59362 7.52461 7.45643 8.45013C7.36244 8.52664 7.31894 8.61287 7.30729 8.73249C7.27233 9.08398 7.22767 9.4343 7.18494 9.78463C7.17951 9.82929 7.16475 9.87318 7.15465 9.91745C7.14261 9.9194 7.13057 9.92134 7.11853 9.92367Z" fill="#F24A00"/>
</svg>
