<svg width="13" height="11" viewBox="0 0 13 11" fill="none" xmlns="http://www.w3.org/2000/svg">
<path d="M11.375 2.2H2.70833C2.24304 2.2 1.80267 1.9954 1.49771 1.65055C1.79563 1.31285 2.22842 1.1 2.70833 1.1H12.4583C12.7579 1.1 13 0.8536 13 0.55C13 0.2464 12.7579 0 12.4583 0H2.70833C1.21279 0 0 1.23145 0 2.75V8.25C0 9.76855 1.21279 11 2.70833 11H11.375C12.2725 11 13 10.2614 13 9.35V3.85C13 2.93865 12.2725 2.2 11.375 2.2ZM11.9167 9.35C11.9167 9.65305 11.674 9.9 11.375 9.9H2.70833C1.81242 9.9 1.08333 9.1597 1.08333 8.25V2.7489C1.54592 3.10035 2.11467 3.3 2.70833 3.3H11.375C11.674 3.3 11.9167 3.54695 11.9167 3.85V9.35ZM10.8333 6.6C10.8333 6.9036 10.5907 7.15 10.2917 7.15C9.99267 7.15 9.75 6.9036 9.75 6.6C9.75 6.2964 9.99267 6.05 10.2917 6.05C10.5907 6.05 10.8333 6.2964 10.8333 6.6Z" fill="#2D2D2D"/>
</svg>
