<svg width="15" height="14" viewBox="0 0 15 14" fill="none" xmlns="http://www.w3.org/2000/svg">
<path d="M11.5257 13.9348H4.23272C4.07197 13.9118 3.91035 13.8944 3.75116 13.8642C2.11433 13.5581 0.921932 12.128 0.915133 10.4359C0.906066 8.1273 0.91182 5.81869 0.913563 3.51008C0.913563 2.89984 1.05183 2.31977 1.36322 1.79427C2.06674 0.607099 3.12105 0.0094165 4.49757 0.00436026C6.74672 -0.00383434 8.99588 0.001745 11.245 0.00331418C11.4129 0.00254164 11.5806 0.0115653 11.7473 0.030339C12.4451 0.11336 13.1017 0.404189 13.632 0.86508C14.1624 1.32597 14.542 1.93564 14.7215 2.61495C14.7774 2.82784 14.805 3.04839 14.8456 3.26529V10.7231C14.8282 10.8118 14.8128 10.9007 14.7956 10.9893C14.5138 12.4364 13.6668 13.3764 12.2572 13.8006C12.0213 13.8717 11.7698 13.8914 11.5257 13.9348ZM3.52293 11.3021C3.59041 11.2847 3.63365 11.2749 3.67567 11.2615C4.34832 11.0475 5.02185 10.8357 5.69276 10.6164C5.82561 10.573 5.93249 10.5825 6.06169 10.6439C7.38799 11.2747 8.71761 11.2541 10.0031 10.5581C11.2135 9.90169 11.9412 8.86499 12.159 7.49562C12.3333 6.39946 12.1121 5.37304 11.4673 4.47356C10.4653 3.07559 9.08062 2.4725 7.37248 2.67196C6.27196 2.80046 5.36096 3.32143 4.6564 4.17297C3.53235 5.5317 3.37526 7.38508 4.23325 8.93159C4.27963 9.01511 4.28364 9.0845 4.25312 9.17237C4.0099 9.87362 3.77086 10.5763 3.52224 11.3023L3.52293 11.3021Z" fill="#F24A00"/>
<path d="M4.60577 10.2656C4.75048 9.84137 4.8891 9.44402 5.01847 9.04371C5.03475 8.9821 5.02604 8.91655 4.99423 8.86133C4.30362 7.80092 4.1678 6.67338 4.64692 5.50469C5.08594 4.43398 5.88971 3.73186 7.0101 3.4311C8.15368 3.12407 9.22299 3.32649 10.1539 4.05878C11.2277 4.90421 11.7047 6.02897 11.5004 7.39101C11.2629 8.97466 10.0533 10.1432 8.46665 10.3725C7.61528 10.4955 6.81692 10.3365 6.08132 9.88601C6.00652 9.84033 5.94515 9.83963 5.86704 9.86543C5.49741 9.98748 5.12639 10.1046 4.75554 10.2232C4.71474 10.2368 4.67185 10.2473 4.60577 10.2656ZM6.63263 4.94432C6.47222 4.91276 6.33727 4.94745 6.24504 5.05712C6.13276 5.1905 6.01542 5.33121 5.94864 5.48917C5.77429 5.90239 5.86774 6.30375 6.08551 6.67285C6.68912 7.69631 7.50021 8.46276 8.68337 8.7834C9.09153 8.89394 9.44808 8.85105 9.7933 8.61724C10.0374 8.4516 10.1185 8.21326 10.1071 7.93604C10.105 7.88548 10.0564 7.81539 10.01 7.79168C9.74012 7.65324 9.46482 7.52544 9.19056 7.39502C9.07915 7.34185 8.99424 7.37114 8.92066 7.47139C8.82965 7.59553 8.72731 7.7113 8.63089 7.83143C8.57126 7.90623 8.49977 7.91965 8.41347 7.88374C7.88413 7.659 7.4411 7.32685 7.1128 6.8486C6.86696 6.49048 6.89625 6.56632 7.13389 6.28492C7.15708 6.25737 7.17417 6.22477 7.19631 6.19617C7.28994 6.07569 7.28942 5.95434 7.2249 5.81678C7.12901 5.61191 7.0441 5.40147 6.96337 5.19015C6.9013 5.02661 6.82006 4.9023 6.6328 4.94432H6.63263Z" fill="#F24A00"/>
</svg>
