<svg width="16" height="15" viewBox="0 0 16 15" fill="none" xmlns="http://www.w3.org/2000/svg">
<path d="M13.2965 14.8856C10.0019 14.8856 6.70694 14.8856 3.41236 14.8856C3.38516 14.8767 3.35881 14.8635 3.33119 14.8597C2.18625 14.7028 1.26953 13.879 0.989884 12.7522C0.95971 12.631 0.938034 12.5078 0.912109 12.3853C0.912109 9.09063 0.912109 5.79633 0.912109 2.50162C0.921034 2.47441 0.93421 2.44763 0.938035 2.41958C1.14203 1.00962 2.28145 0.00645652 3.71199 0.00348103C6.80766 -0.00289502 9.90376 0.00135532 12.9994 0.00178039C13.3964 0.00178039 13.7857 0.0617146 14.1414 0.240244C15.2094 0.775832 15.7917 1.63107 15.7951 2.84252C15.8002 4.68818 15.7963 6.53426 15.7963 8.37991C15.7963 9.61049 15.7997 10.8411 15.7955 12.0716C15.7908 13.3162 15.0407 14.3602 13.8724 14.7492C13.6858 14.8116 13.4886 14.8414 13.2965 14.8856ZM13.0262 3.91157C12.7087 4.03612 12.4002 4.16067 12.0891 4.27756C11.8898 4.35237 11.7334 4.34685 11.537 4.18234C10.8847 3.63655 10.1311 3.56472 9.37719 3.93155C8.6224 4.29881 8.23098 4.93344 8.23438 5.78783C8.2348 5.92981 8.25095 6.07178 8.26072 6.2248C6.56031 6.09898 5.17228 5.38657 4.07068 4.09945C3.80634 4.56831 3.73876 5.05076 3.83184 5.56C3.92661 6.07688 4.20583 6.47772 4.6304 6.78717C4.6202 6.80375 4.61 6.82033 4.60023 6.83691C4.30443 6.75657 4.00863 6.67623 3.70519 6.59334C3.70391 6.9266 3.78296 7.2505 3.95934 7.54635C4.26916 8.06578 4.70988 8.41859 5.30912 8.56397C5.30615 8.58097 5.30317 8.5984 5.3002 8.6154C5.04223 8.6154 4.78468 8.6154 4.5029 8.6154C4.85735 9.47787 5.45957 9.95522 6.39286 10.0364C5.50632 10.714 4.53096 10.9762 3.43574 10.8823C3.46209 10.9057 3.47399 10.9206 3.48929 10.9299C3.94999 11.2122 4.43873 11.4298 4.95978 11.5739C5.75537 11.7941 6.56159 11.8332 7.37758 11.7205C8.42307 11.5769 9.37889 11.2045 10.177 10.5112C11.5931 9.28106 12.3203 7.72233 12.308 5.83289C12.3075 5.77338 12.3505 5.70027 12.3959 5.65649C12.5315 5.52557 12.6879 5.41505 12.818 5.27945C12.9824 5.10772 13.1291 4.91899 13.3088 4.70816C12.9212 4.81485 12.5829 4.90794 12.2446 5.00103C12.2374 4.9853 12.2302 4.96957 12.223 4.95342C12.6106 4.69498 12.8826 4.34982 13.0262 3.91157Z" fill="#F24A00"/>
</svg>
